<?xml version="1.0" encoding="windows-1252"?>
<!-- Generator: Adobe Illustrator 17.1.0, SVG Export Plug-In . SVG Version: 6.00 Build 0)  -->
<!DOCTYPE svg PUBLIC "-//W3C//DTD SVG 1.1//EN" "http://www.w3.org/Graphics/SVG/1.1/DTD/svg11.dtd">
<svg version="1.1" id="Capa_1" xmlns="http://www.w3.org/2000/svg" xmlns:xlink="http://www.w3.org/1999/xlink" x="0px" y="0px" viewBox="0 0 298.5 298.5" style="enable-background:new 0 0 298.5 298.5;" xml:space="preserve">
<path d="M239.582,155.663c-4.324,0-8.536,0.482-12.598,1.37c-1.362-4.576-2.727-9.25-4.067-13.959  c-17.079-60.02-16.443-77.299-15.516-81.795l1.53-0.241c7.42-1.174,13.476-6.339,15.805-13.48  c2.329-7.141,0.482-14.883-4.819-20.204c-1.501-1.507-3.54-2.354-5.667-2.354h-50c-4.418,0-8,3.582-8,8s3.582,8,8,8h45.462  c0.06,0.686-0.079,1.267-0.187,1.598c-0.223,0.681-0.968,2.064-3.09,2.399L204.914,45c-0.021,0-0.042,0-0.063,0  c-3.823,0-7.312,1.919-9.719,4.969c-3.429,4.346-6.306,12.519-1.639,39.31c0.125,0.72,0.26,1.518,0.395,2.259  c-40.557,0.934-69.546,11.946-90.186,26.4l-23.22-43.221l16.703-5.729c3.467-1.191,5.564-4.91,4.961-8.527  C101.544,56.847,98.416,54,94.75,54H48.584C42.61,54,37.75,59.06,37.75,65.034c0,9.52,7.734,17.365,17.242,17.365  c1.906,0,3.797-0.267,5.62-0.893l5.496-1.862l25.666,47.803c-9.879,8.923-17.263,18.525-22.748,27.562  c-0.282,0.465-0.548,0.933-0.822,1.397c-2.411-0.383-4.866-0.634-7.364-0.714c-16.837-0.539-32.6,5.878-44.246,17.901  C5.399,185.151-0.484,200.391,0.031,216.503c0.988,30.955,26.011,55.977,56.966,56.965c0.645,0.021,1.282,0.031,1.923,0.031  c16.093,0,31.124-6.368,42.323-17.932c8.07-8.332,13.361-18.58,15.504-29.684l9.437,0.039C130.33,233.132,138.105,238,147,238  c13.233,0,24-10.767,24-24c0-5.831-2.092-11.181-5.562-15.344c10.96-13.542,23.53-32.896,23.311-50.25  c-0.258-20.513,11.336-25.748,11.829-25.961l0.172-0.087c1.828,7.207,3.905,14.935,6.233,23.174  c1.627,5.756,3.295,11.472,4.957,17.037c-18.591,9.92-31.277,29.509-31.277,52.011c0,32.488,26.431,58.919,58.919,58.919  c32.487,0,58.918-26.431,58.918-58.919C298.5,182.094,272.069,155.663,239.582,155.663z M99.05,141.006l30.414,56.632  c-3.293,3.527-5.536,8.044-6.23,13.051l-5.539-0.016c-1.457-22.204-15.279-41.096-34.633-49.828  C87.718,153.497,93.044,146.875,99.05,141.006z M70.469,210.54c-1.15-2.039-2.741-3.792-4.643-5.14  c1.492-8.137,4.392-19.362,10-31.346c14.69,6.15,25.358,20.062,26.83,36.576L70.469,210.54z M90.469,245.133  c-8.683,8.964-20.406,13.754-32.993,13.344c-23.068-0.736-41.716-19.383-42.452-42.451c-0.384-12.018,4.001-23.38,12.346-31.996  c8.35-8.619,19.554-13.367,31.549-13.367c0.48,0,0.96,0.008,1.444,0.023c0.173,0.006,0.344,0.022,0.516,0.029  c-5.558,12.641-8.469,24.338-9.983,32.926C45.104,205.97,41,211.635,41,218.25c0,8.685,7.065,15.75,15.75,15.75  c5.994,0,11.213-3.367,13.874-8.307l30.764,0.128C99.499,233.013,95.795,239.634,90.469,245.133z M173.751,148.595  c0.161,12.767-10.981,29.591-21.223,42.055c-1.776-0.42-3.625-0.65-5.528-0.65c-1.501,0-2.967,0.145-4.392,0.41l-31.845-59.297  c21.943-15.968,50.776-24.21,86.188-24.594c0.026,0.114,0.05,0.226,0.076,0.34C192.813,108.92,173.392,120.104,173.751,148.595z   M239.582,258.5c-24.217,0-43.919-19.702-43.919-43.919c0-15.72,8.307-29.53,20.758-37.291c7.67,24.737,14.179,43.567,14.271,43.829  c1.146,3.308,4.244,5.383,7.559,5.383c0.868,0,1.752-0.143,2.619-0.443c4.175-1.446,6.387-6.003,4.94-10.178  c-0.09-0.258-6.721-19.443-14.449-44.435c2.665-0.507,5.411-0.783,8.222-0.783c24.217,0,43.918,19.701,43.918,43.918  S263.799,258.5,239.582,258.5z"/>
<g>
</g>
<g>
</g>
<g>
</g>
<g>
</g>
<g>
</g>
<g>
</g>
<g>
</g>
<g>
</g>
<g>
</g>
<g>
</g>
<g>
</g>
<g>
</g>
<g>
</g>
<g>
</g>
<g>
</g>
</svg>