<svg id="Layer_1" data-name="Layer 1" xmlns="http://www.w3.org/2000/svg" viewBox="0 0 792 612"><defs><style>.cls-1{fill:#fff;}</style></defs><title>great-divide</title><rect width="792" height="612"/><path d="M508.56,376.08H285.24a5.21,5.21,0,0,1-1.08-.23c.48,0,1,0,1.44,0q17.58,0,35.16,0a1.8,1.8,0,0,0,1.68-.84c1.21-1.74,2.47-3.44,3.75-5.12a2.54,2.54,0,0,1,1.18-.92c3.45-1,6.94-1.84,10.39-2.8,1.91-.53,4.05-.66,5.08-2.87a19.72,19.72,0,0,1,1.63-2.36,29.86,29.86,0,0,0,2.88-4.53c1-2.34,1.59-4.85,2.42-7.26a1.54,1.54,0,0,1,.94-.9c4-.71,8-1.35,11.93-2,2.48-.42,5-.83,7.42-1.31a1.35,1.35,0,0,0,.87-.79c.29-1,.37-2,.64-3,.77-2.9.74-6.06,2.79-8.55.63-.77,1.06-1.7,1.7-2.46a3.63,3.63,0,0,1,1.58-1.14c3.51-1.05,7-2,10.58-3,3-.83,5.9-1.66,8.87-2.46a1.34,1.34,0,0,0,1.16-1.52c0-1.52.18-3,.17-4.55,0-1,.39-1.33,1.3-1.44,1.68-.2,3.35-.5,5.18-.78-.75-.89-1.44-1.61-2-2.41s-1.73-1.09-1.5-2.39h6.07l.06-.2-1.7-1a3.88,3.88,0,0,1,.72-.22c2.67-.16,5.35-.35,8-.45,2.83-.11,3.06-.32,3.09-3.07a29.21,29.21,0,0,1,.16-3.09c.08-.72.6-1.48.45-2.1-.38-1.52.52-1.74,1.58-1.95l.35-.06,15-3.79c-1.08-.88-1.9-1.5-2.66-2.19a2.91,2.91,0,0,1-.46-.92,4.3,4.3,0,0,1,.89-.41c2.43-.5,4.86-.94,7.28-1.47a1.19,1.19,0,0,0,.76-.82,52,52,0,0,0,.12-5.63c-.06-1.11.27-1.48,1.33-1.59,2.38-.26,4.75-.63,7.26-1-.66-.38-1.19-.66-1.69-1s-1-.65-1.47-1l.12-.45c12.83-1.75,25.8-2.71,38.61-6.52L460,266.44l0-.31a5.55,5.55,0,0,1,.93-.23c4.07-.3,8.13-.7,12.2-.81a14.6,14.6,0,0,0,6.48-1.78,28,28,0,0,1,6-2.69c3.83-.94,7.77-1.43,11.66-2.12.61-.11,1.21-.3,1.82-.45l-.06-.17-10.29-1.31a9.72,9.72,0,0,0,.5-2.08c0-.87.39-1.14,1.15-1.15,1.4,0,2.8,0,4.19-.14a1.54,1.54,0,0,0,1.12-.88,40.45,40.45,0,0,0,.83-5.67c.07-1.18.42-1.66,1.58-1.62a8.37,8.37,0,0,0,1.67-.16c.3-.05.78-.17.84-.36.44-1.37,1.6-1.08,2.58-1.18,1.61-.16,3.22-.29,4.82-.43v-.25l-4.75-.25,0-.35,3.33-.76-1.78-.3,0-.24,3.3-.46v-.19l-1.43-.38,0-.24,1.55-.56c.29-1.21-.24-1.58-1.32-1.54s-2.21,0-3.31,0v.17l2.44.32,0,.2-6.17,1.07,0,.18,3,.9-.08.36-6.64-.41v.16l2.68.48-.07.47-4.25.22v.27l3.73.37v.38l-6.88.86,1.18.62,0,.31-6,.67c0,1.15.54,1.69,1.53,1.79a12.36,12.36,0,0,1,1.29.23l4.45,1-.05.39-13.39,1,2.14,2.39-12.29.66,6.14,2.23-.08.37h-2.93v.25l5.19.69,0,.3a11.57,11.57,0,0,1-1.32.33l-13.19,1.72a23.4,23.4,0,0,0-3.77.63c-2.33.71-4.59,1.61-6.9,2.4a26.72,26.72,0,0,1-5,1.52c-2.93.37-5.9.39-8.85.58-1.92.12-3.84.28-5.76.42V264l19,4.44v.32c-13.14,3.06-26.59,4.06-40.19,5.44l1.77,2.32c-2.95.21-5.54.36-8.11.61a2,2,0,0,0-1.38.82c-.81,1.46-1.41,3-2.19,4.5a2.17,2.17,0,0,1-1.2,1.07c-1.52.33-3.08.47-4.62.7l-6,.89a14.87,14.87,0,0,0,.78,1.73c.52.84.15,1.16-.65,1.3l-2.71.49c-4.48.81-9,1.63-13.44,2.42-.67.12-.88.43-.78,1.06.14.87.21,1.74.37,2.61.36,2,.39,2-1.54,2.51a66.21,66.21,0,0,1-7.32,1.74,66.36,66.36,0,0,1-6.95.31,9.31,9.31,0,0,0-1,.14l.92,1.18-6.12-.29c.28,1.09.5,2,.72,2.85s0,1.24-.9,1.22c-.59,0-1.2.19-1.79.14a5.67,5.67,0,0,0-5.86,3.33,5.19,5.19,0,0,1-4,2.85c-4.8.8-9.52,2.12-14.33,2.78a20.12,20.12,0,0,0-10.36,5.06,53.05,53.05,0,0,0-5.63,6.05,4.18,4.18,0,0,1-3,1.53c-5,.53-9.91,1.23-14.88,1.74a4.37,4.37,0,0,0-2.93,1.31c-1.68,1.7-3.46,3.3-5.2,4.95q0-48.48,0-97h224.4M374.39,252.89v16.76c2.38,0,4.66.11,6.93,0,1.9-.12,2.69-.85,2.74-2.67q.17-5.44,0-10.89a2.76,2.76,0,0,0-2.84-2.84C379,253,376.74,253,374.39,252.89Zm-40.54,6.16c-.09-1.06-.12-2.05-.27-3-.3-1.9-1.89-3.16-4.11-3.33-2.69-.21-4.62.75-5.26,2.61a2.27,2.27,0,0,0-.17.69c0,3.51-.07,7,0,10.53a3.39,3.39,0,0,0,2,3,3.46,3.46,0,0,0,4.68-.79c.6,1.12,1.32,1.3,3.06.83v-8.65h-4.9c.24.94-.63,2,.76,2.58.08,0,.1.29.1.45a14.93,14.93,0,0,1-.11,2.39c-.07.36-.51.66-.78,1-.23-.33-.65-.66-.65-1q-.07-5,0-9.94c0-.32.46-.62.7-.94.23.33.61.63.65,1a24.7,24.7,0,0,1,0,2.66Zm81.74,10.7V253.08h-4v3.67c-.38-.23-.6-.38-.84-.5-2.22-1.2-4.35-.18-4.45,2.3-.12,3-.08,6,0,9a2.53,2.53,0,0,0,3.62,2.23,10.28,10.28,0,0,0,1.33-.68C412.7,270.27,414.18,269.46,415.59,269.75Zm-107.71-.08c0-4,0-7.89,0-11.79a2.17,2.17,0,0,0-2.19-2,20,20,0,0,0-3.1.44v-3.25h-3.95v16.56h3.93c0-.34,0-.58,0-.82,0-3.2,0-6.39,0-9.59,0-.35.45-.69.68-1,.19.34.54.67.56,1,.07,1.43,0,2.87.05,4.31,0,2,0,4.06,0,6.14Zm54.58.13c0-3.78,0-7.36,0-10.95a2.84,2.84,0,0,0-2.6-2.85,9.71,9.71,0,0,0-3.44,0,3.84,3.84,0,0,0-2.82,5.24h3.49c.06-.86.07-1.65.18-2.43a.9.9,0,0,1,.59-.57c.16,0,.49.24.59.45a2.23,2.23,0,0,1-1.13,3c-.36.16-.73.31-1.1.46-2.71,1.13-2.91,1.44-2.83,4.39a8.61,8.61,0,0,0,.1,1.07,2.35,2.35,0,0,0,2.67,2.3,9.67,9.67,0,0,0,2.35-.76C359.57,270.4,361.12,269.37,362.47,269.8Zm-43.78-6.73c0-1.19.06-2.19,0-3.17-.2-2.76-1.95-4.17-5-4.09-2.73.07-4.21,1.5-4.29,4.24-.05,1.88,0,3.75,0,5.63,0,1.71.61,3.18,2.34,3.82,2,.73,3.95.85,5.65-.6,1.5-1.28,1.48-3,1.23-4.79h-3.75a20,20,0,0,1,0,2.58c0,.33-.49.6-.75.9-.22-.29-.61-.56-.63-.86-.07-1.18,0-2.37,0-3.66Zm33.41,0c0-1,0-1.71,0-2.46-.13-3.85-3-5.79-6.67-4.54a3.17,3.17,0,0,0-2.44,2.8,55.24,55.24,0,0,0-.13,7.28c.2,2.91,2.82,4.4,6,3.69,2.56-.57,3.86-3,3-5.73h-3.65a20.25,20.25,0,0,1,0,2.58c0,.33-.49.6-.75.9-.22-.29-.61-.56-.63-.86-.07-1.18,0-2.36,0-3.66Zm74.29,1.06h-3.69a26,26,0,0,1-.2,2.7c0,.29-.48.51-.74.77-.2-.25-.56-.5-.57-.77-.06-1.22,0-2.44,0-3.81h5.28c0-.9,0-1.66,0-2.41a9.87,9.87,0,0,0-.19-1.42,3.86,3.86,0,0,0-3.57-3.31,10.06,10.06,0,0,0-1.91,0,3.61,3.61,0,0,0-3.6,3.61c-.1,2.27-.08,4.55,0,6.83a3.34,3.34,0,0,0,2.17,3.18,5.47,5.47,0,0,0,5.49-.35C426.52,267.89,426.56,266,426.39,264.12Zm-30.88,1.23h-.22c-.33-2.77-.64-5.54-1-8.3,0-.36-.41-.93-.68-1a24.46,24.46,0,0,0-3,0l2,13.61H398l1.88-13.53H396.3Zm-104.6-9.06v13.34h4.17V256.34l2.42-.12v-3.15h-9.14v3.22Zm73.53-2.06c-.31.87.37,2-.95,2.39-.11,0,0,1.63.23,1.72.76.27.59.76.59,1.23,0,2.6,0,5.2,0,7.8a2,2,0,0,0,2,2.26,30.21,30.21,0,0,0,3.22,0v-1.94l-.28.16c-.3-.38-.86-.74-.87-1.13-.08-2.71,0-5.43,0-8.2l1.06-.18v-1.91l-1.15-.27v-2Zm-22.64,6.22v-5l-2.41,1.78-.11-1.16h-3.82v13.54h4c0-2.19,0-4.3,0-6.4S339.66,260.92,341.8,260.45Zm44-4.32v13.52h4V256.12Zm18.88,13.55V256.11h-4v13.56ZM508.06,249v-.28c-.62-.11-1.25-.23-1.87-.33l-7.33-1.12c-.76-.11-1.25.09-1.26,1a15.23,15.23,0,0,1-.22,1.61Zm-107.42,4.09v2h4v-2Zm-14.84,0v2h4v-2Zm104,2.24v.43c2,.78,4-.25,6.06-.15l-5.64-1.37-.08.27,1.16.61Zm7.13-2.77,0,.18h6.6v-.18Z"/><path class="cls-1" d="M284.16,334.08c1.74-1.64,3.53-3.24,5.2-4.95a4.37,4.37,0,0,1,2.93-1.31c5-.51,9.92-1.2,14.88-1.74a4.18,4.18,0,0,0,3-1.53,53.05,53.05,0,0,1,5.63-6.05,20.12,20.12,0,0,1,10.36-5.06c4.81-.66,9.53-2,14.33-2.78a5.19,5.19,0,0,0,4-2.85,5.67,5.67,0,0,1,5.86-3.33c.59,0,1.19-.16,1.79-.14.94,0,1.09-.45.9-1.22s-.44-1.75-.72-2.85l6.12.29-.92-1.18a9.31,9.31,0,0,1,1-.14,66.36,66.36,0,0,0,6.95-.31,66.21,66.21,0,0,0,7.32-1.74c1.92-.51,1.9-.55,1.54-2.51-.16-.86-.24-1.74-.37-2.61-.1-.63.11-.95.78-1.06,4.48-.79,9-1.61,13.44-2.42l2.71-.49c.8-.14,1.17-.46.65-1.3a14.87,14.87,0,0,1-.78-1.73l6-.89c1.54-.23,3.1-.37,4.62-.7a2.17,2.17,0,0,0,1.2-1.07c.78-1.47,1.39-3,2.19-4.5a2,2,0,0,1,1.38-.82c2.58-.26,5.16-.4,8.11-.61l-1.77-2.32c13.61-1.37,27.05-2.38,40.19-5.44v-.32l-19-4.44v-.18c1.92-.14,3.84-.29,5.76-.42,3-.19,5.93-.2,8.85-.58a26.72,26.72,0,0,0,5-1.52c2.31-.78,4.57-1.69,6.9-2.4a23.4,23.4,0,0,1,3.77-.63l13.19-1.72a11.57,11.57,0,0,0,1.32-.33l0-.3-5.19-.69V255h2.93l.08-.37L470,252.36l12.29-.66-2.14-2.39,13.39-1,.05-.39-4.45-1a12.36,12.36,0,0,0-1.29-.23c-1-.1-1.5-.64-1.53-1.79l6-.67,0-.31-1.18-.62,6.88-.86v-.38l-3.73-.37v-.27l4.25-.22.07-.47-2.68-.48v-.16l6.64.41.08-.36-3-.9,0-.18,6.17-1.07,0-.2-2.44-.32v-.17c1.1,0,2.21,0,3.31,0s1.61.33,1.32,1.54l-1.55.56,0,.24,1.43.38v.19l-3.3.46,0,.24,1.78.3-3.33.76,0,.35,4.75.25v.25c-1.61.14-3.22.27-4.82.43-1,.1-2.14-.19-2.58,1.18-.06.19-.54.31-.84.36a8.37,8.37,0,0,1-1.67.16c-1.16,0-1.51.44-1.58,1.62a40.45,40.45,0,0,1-.83,5.67,1.54,1.54,0,0,1-1.12.88c-1.39.14-2.79.11-4.19.14-.76,0-1.16.28-1.15,1.15a9.72,9.72,0,0,1-.5,2.08L499,257.88l.06.17c-.61.15-1.21.34-1.82.45-3.89.69-7.83,1.19-11.66,2.12a28,28,0,0,0-6,2.69,14.6,14.6,0,0,1-6.48,1.78c-4.07.11-8.14.52-12.2.81a5.55,5.55,0,0,0-.93.23l0,.31,25.31,5.08c-12.81,3.81-25.78,4.77-38.61,6.52l-.12.45c.49.33,1,.66,1.47,1s1,.6,1.69,1c-2.52.34-4.88.72-7.26,1-1.06.11-1.39.48-1.33,1.59a52,52,0,0,1-.12,5.63,1.19,1.19,0,0,1-.76.82c-2.42.53-4.86,1-7.28,1.47a4.3,4.3,0,0,0-.89.41,2.91,2.91,0,0,0,.46.92c.76.69,1.58,1.31,2.66,2.19l-15,3.79-.35.06c-1.06.21-2,.43-1.58,1.95.16.62-.37,1.39-.45,2.1a29.21,29.21,0,0,0-.16,3.09c0,2.75-.26,3-3.09,3.07-2.68.11-5.35.29-8,.45a3.88,3.88,0,0,0-.72.22l1.7,1-.06.2H401.4c-.24,1.3,1,1.65,1.5,2.39s1.26,1.53,2,2.41c-1.83.28-3.5.58-5.18.78-.92.11-1.31.47-1.3,1.44,0,1.52-.18,3-.17,4.55a1.34,1.34,0,0,1-1.16,1.52c-3,.8-5.91,1.63-8.87,2.46-3.53,1-7.07,2-10.58,3a3.63,3.63,0,0,0-1.58,1.14c-.64.76-1.07,1.69-1.7,2.46-2.05,2.49-2,5.65-2.79,8.55-.27,1-.35,2-.64,3a1.35,1.35,0,0,1-.87.79c-2.47.48-4.94.89-7.42,1.31-4,.67-8,1.31-11.93,2a1.54,1.54,0,0,0-.94.9c-.83,2.41-1.43,4.92-2.42,7.26a29.86,29.86,0,0,1-2.88,4.53,19.72,19.72,0,0,0-1.63,2.36c-1,2.2-3.17,2.34-5.08,2.87-3.46,1-6.94,1.83-10.39,2.8a2.54,2.54,0,0,0-1.18.92c-1.28,1.68-2.54,3.39-3.75,5.12a1.8,1.8,0,0,1-1.68.84q-17.58,0-35.16,0c-.48,0-1,0-1.44,0Q284.16,355,284.16,334.08Z"/><path d="M508.06,249l-10.71.86a15.23,15.23,0,0,0,.22-1.61c0-.88.51-1.09,1.26-1l7.33,1.12c.63.1,1.25.22,1.87.33Z"/><path d="M489.82,255.29l1.49-.21-1.16-.61.08-.27,5.64,1.37c-2-.1-4.06.92-6.06.15Z"/><path d="M497,252.51h6.63v.18H497Z"/><path d="M378.57,255.9c1-.19,1.36.24,1.36,1.07q0,4.3,0,8.61c0,.8-.27,1.42-1.35,1.26Z"/><path d="M411.59,262.89c0,1.24,0,2.48,0,3.71,0,.34-.42.66-.64,1-.22-.32-.63-.64-.64-1q-.08-3.77,0-7.54c0-.3.45-.6.69-.9.21.33.59.66.61,1,.07,1.23,0,2.47,0,3.71Z"/><path d="M358.56,263.23c0,1.35,0,2.49,0,3.62,0,.26-.39.5-.6.74-.22-.19-.54-.35-.63-.59A3.34,3.34,0,0,1,358.56,263.23Z"/><path d="M314.65,260.83h-1.2a17.58,17.58,0,0,1,0-2c0-.23.37-.42.57-.62.2.2.55.39.58.61A16.87,16.87,0,0,1,314.65,260.83Z"/><path class="cls-1" d="M374.54,241.48c2.35.11,4.59.14,6.81.33a2.76,2.76,0,0,1,2.84,2.84q.18,5.44,0,10.89c-.06,1.82-.84,2.55-2.74,2.67-2.26.14-4.54,0-6.93,0Zm4.18,3v10.93c1.08.16,1.34-.45,1.35-1.26q0-4.3,0-8.61C380.08,244.72,379.69,244.29,378.72,244.48Z"/><path class="cls-1" d="M334,247.64h-4.32a24.7,24.7,0,0,0,0-2.66c0-.35-.42-.66-.65-1-.24.31-.7.62-.7.94q-.08,5,0,9.94c0,.34.42.67.65,1,.27-.33.72-.62.78-1a14.93,14.93,0,0,0,.11-2.39c0-.15,0-.41-.1-.45-1.39-.54-.52-1.65-.76-2.58h4.9v8.65c-1.73.47-2.46.3-3.06-.83a3.46,3.46,0,0,1-4.68.79,3.39,3.39,0,0,1-2-3c-.06-3.51,0-7,0-10.53a2.27,2.27,0,0,1,.17-.69c.64-1.86,2.57-2.81,5.26-2.61,2.22.17,3.82,1.43,4.11,3.33C333.88,245.59,333.91,246.58,334,247.64Z"/><path class="cls-1" d="M415.74,258.33c-1.41-.29-2.89.52-4.32-.67a10.28,10.28,0,0,1-1.33.68,2.53,2.53,0,0,1-3.62-2.23c-.12-3-.16-6,0-9,.1-2.48,2.23-3.51,4.45-2.3.23.13.46.27.84.5v-3.67h4Zm-4-6.86h0c0-1.24,0-2.48,0-3.71,0-.34-.4-.67-.61-1-.24.3-.68.59-.69.9q-.08,3.77,0,7.54c0,.33.42.65.64,1,.22-.33.62-.64.64-1C411.78,253.95,411.74,252.71,411.74,251.47Z"/><path class="cls-1" d="M308,258.25h-3.94c0-2.09,0-4.11,0-6.14,0-1.44,0-2.88-.05-4.31,0-.35-.36-.68-.56-1-.24.34-.68.68-.68,1-.06,3.19,0,6.39,0,9.59,0,.24,0,.48,0,.82h-3.93V241.64h3.95v3.25a20,20,0,0,1,3.1-.44,2.17,2.17,0,0,1,2.19,2C308.07,250.36,308,254.27,308,258.25Z"/><path class="cls-1" d="M362.61,258.38c-1.35-.43-2.9.6-4-.62a9.67,9.67,0,0,1-2.35.76,2.35,2.35,0,0,1-2.67-2.3,8.61,8.61,0,0,1-.1-1.07c-.08-3,.13-3.26,2.83-4.39.37-.15.74-.3,1.1-.46a2.23,2.23,0,0,0,1.13-3c-.1-.21-.43-.49-.59-.45a.9.9,0,0,0-.59.57c-.12.78-.13,1.57-.18,2.43h-3.49a3.84,3.84,0,0,1,2.82-5.24,9.71,9.71,0,0,1,3.44,0,2.84,2.84,0,0,1,2.6,2.85C362.66,251,362.61,254.6,362.61,258.38Zm-3.91-6.57a3.34,3.34,0,0,0-1.26,3.78c.09.24.42.39.63.59.21-.25.58-.48.6-.74C358.75,254.29,358.71,253.15,358.71,251.81Z"/><path class="cls-1" d="M318.84,251.65h-5.26c0,1.3,0,2.48,0,3.66,0,.3.41.57.63.86.26-.3.71-.57.75-.9a20,20,0,0,0,0-2.58h3.75c.25,1.75.28,3.51-1.23,4.79-1.7,1.45-3.69,1.33-5.65.6-1.73-.65-2.3-2.11-2.34-3.82,0-1.88-.05-3.75,0-5.63.08-2.75,1.55-4.17,4.29-4.24,3-.08,4.79,1.33,5,4.09C318.9,249.46,318.84,250.46,318.84,251.65Zm-4-2.23a16.87,16.87,0,0,0,0-2c0-.23-.37-.41-.58-.61-.2.21-.54.4-.57.62a17.58,17.58,0,0,0,0,2Z"/><path class="cls-1" d="M352.25,251.64H347c0,1.3,0,2.49,0,3.66,0,.3.41.58.63.86.26-.3.7-.57.75-.9a20.25,20.25,0,0,0,0-2.58H352c.84,2.68-.46,5.16-3,5.73-3.22.71-5.83-.78-6-3.69a55.24,55.24,0,0,1,.13-7.28,3.17,3.17,0,0,1,2.44-2.8c3.66-1.25,6.54.69,6.67,4.54C352.27,249.94,352.25,250.69,352.25,251.64ZM347,249.47l1.18-.07c0-.75,0-1.42,0-2.08,0-.2-.36-.55-.48-.52s-.61.3-.64.5A18.5,18.5,0,0,0,347,249.47Z"/><path class="cls-1" d="M426.53,252.7c.18,1.91.14,3.76-1.56,5a5.47,5.47,0,0,1-5.49.35,3.34,3.34,0,0,1-2.17-3.18c-.08-2.27-.1-4.55,0-6.83a3.61,3.61,0,0,1,3.6-3.61,10.06,10.06,0,0,1,1.91,0,3.86,3.86,0,0,1,3.57,3.31,9.87,9.87,0,0,1,.19,1.42c0,.75,0,1.51,0,2.41h-5.28c0,1.37,0,2.59,0,3.81,0,.26.37.51.57.77.26-.25.69-.48.74-.77a26,26,0,0,0,.2-2.7Zm-4.06-3.27a12.46,12.46,0,0,0,0-2.12c0-.18-.62-.27-.95-.4l-.26,2.52Z"/><path class="cls-1" d="M395.66,253.93l.79-9.22H400l-1.88,13.53H392.8l-2-13.61a24.46,24.46,0,0,1,3,0c.27,0,.63.6.68,1,.37,2.76.68,5.53,1,8.3Z"/><path class="cls-1" d="M291.06,244.87H288.5v-3.22h9.14v3.15l-2.42.12v13.29h-4.17Z"/><path class="cls-1" d="M364.59,242.81h3.85v2l1.15.27v1.91l-1.06.18c0,2.78,0,5.49,0,8.2,0,.38.57.75.87,1.13l.28-.16v1.94a30.21,30.21,0,0,1-3.22,0,2,2,0,0,1-2-2.26c0-2.6,0-5.2,0-7.8,0-.47.17-1-.59-1.23-.27-.09-.34-1.69-.23-1.72C365,244.79,364.28,243.67,364.59,242.81Z"/><path class="cls-1" d="M342,249c-2.14.47-2.28.59-2.34,2.8s0,4.22,0,6.4h-4V244.69h3.82l.11,1.16,2.41-1.78Z"/><path class="cls-1" d="M386,244.7h4v13.52h-4Z"/><path class="cls-1" d="M404.84,258.25h-4V244.69h4Z"/><path class="cls-1" d="M400.79,241.63h4v2h-4Z"/><path class="cls-1" d="M386,241.63h4v2h-4Z"/><path d="M347,249.47a18.5,18.5,0,0,1,0-2.16c0-.2.39-.45.64-.5s.46.32.48.52c.06.66,0,1.33,0,2.08Z"/><path d="M422.33,260.85h-1.25l.26-2.52c.33.13.91.21.95.4A12.46,12.46,0,0,1,422.33,260.85Z"/></svg>